# Blender 3.6.4
# www.blender.org
o Cube
v 0.258342 7.136785 -9.389170
v 0.539656 -0.021757 -10.147137
v -0.705187 7.055199 -9.912868
v -0.499453 -0.021757 -9.991603
v -1.064797 -0.021757 -3.392209
v -1.477392 7.182666 -3.478863
v -1.095414 -0.021757 -5.251320
v -1.029427 6.352932 -5.928537
v 0.900117 -0.021757 -3.509873
v 0.553203 6.706690 -2.894593
v 1.017213 -0.021757 -6.224046
v 0.952168 6.924140 -5.933755
v -0.537904 -0.021757 -0.253889
v 0.321225 6.624658 0.403285
v -0.407631 6.617321 -0.116380
v 0.546207 -0.021757 0.055242
v 0.007093 -0.021757 -10.070024
v -0.260456 8.144949 -9.412477
v -0.070199 -0.021757 0.287265
v -0.158199 8.074087 0.671975
v -0.618169 7.415251 -2.612321
v -0.794490 6.802600 -4.114007
v -0.851054 6.775422 -7.034706
v 0.356506 -0.021757 -1.683124
v 0.430114 -0.021757 -4.788289
v 0.385739 -0.021757 -7.184399
v -0.628265 -0.021757 -7.170372
v -0.494069 -0.021757 -4.849943
v -0.694159 -0.021757 -1.786373
v 0.161760 6.837595 -6.893312
v 0.359814 6.342761 -4.033306
v 0.076428 6.867985 -1.034407
v -0.448891 8.562879 -6.966104
v -0.182768 8.329637 -4.962162
v -0.354204 8.115405 -1.443207
v -0.093027 -0.021757 -7.274611
v -0.070096 -0.021757 -4.473791
v -0.100671 -0.021757 -1.783930
v 0.322164 7.017288 10.226974
v 0.491217 -0.021757 9.937157
v -0.678633 6.962630 9.849777
v -0.490895 -0.021757 9.965975
v -1.030709 -0.021757 3.875537
v -1.508139 7.455779 3.885935
v -1.042796 -0.021757 6.157477
v -1.092821 6.352122 5.979604
v 1.029687 -0.021757 4.045776
v 0.665724 6.807640 3.989330
v 0.975781 -0.021757 6.515701
v 0.954449 6.574350 5.554155
v -0.038925 -0.021757 10.212703
v -0.195112 8.053437 10.101658
v -0.688941 7.054244 3.453194
v -0.724018 7.067869 4.971244
v -0.846140 6.295333 8.198349
v 0.519135 -0.021757 2.176404
v 0.460502 -0.021757 5.240943
v 0.390866 -0.021757 7.597820
v -0.596062 -0.021757 7.843107
v -0.545986 -0.021757 5.234122
v -0.664043 -0.021757 2.754367
v 0.167580 6.872888 7.259323
v 0.449703 6.684608 4.831996
v 0.107549 6.981059 2.594320
v -0.445561 8.340157 7.044516
v -0.082373 8.022699 5.561548
v -0.305820 7.905994 2.594530
v -0.012292 -0.021757 7.233016
v -0.008595 -0.021757 4.747538
v -0.035307 -0.021757 2.049021
vn -0.9983 -0.0301 -0.0496
vn 0.0385 0.0933 -0.9949
vn -0.9954 -0.0305 -0.0905
vn -0.2285 -0.0283 -0.9731
vn 0.9956 0.0240 0.0902
vn -0.1211 -0.0442 0.9917
vn -0.0000 -1.0000 -0.0000
vn -0.0074 0.9937 -0.1120
vn 0.9902 0.0467 -0.1319
vn -0.9848 0.1335 0.1111
vn 0.9449 0.3141 -0.0921
vn 0.3505 0.0560 -0.9349
vn 0.9228 0.3828 0.0440
vn 0.9575 0.2843 -0.0488
vn 0.9502 0.3073 0.0516
vn -0.9534 0.2940 -0.0675
vn -0.9485 0.3078 0.0750
vn -0.9289 0.3693 -0.0284
vn 0.9983 0.0324 0.0476
vn 0.9987 0.0257 -0.0436
vn 0.9982 0.0204 0.0566
vn -0.9953 0.0192 0.0944
vn -0.9999 -0.0158 -0.0031
vn -0.9985 -0.0407 0.0366
vn -0.9964 -0.0342 0.0780
vn 0.1334 -0.0089 0.9910
vn -0.9959 -0.0369 0.0825
vn 0.0117 0.0876 0.9961
vn 0.9981 0.0243 -0.0567
vn 0.0646 0.0006 -0.9979
vn 0.1193 0.9397 0.3205
vn 0.9977 0.0436 0.0521
vn -0.9614 0.2608 -0.0878
vn 0.9364 0.3446 0.0665
vn -0.4726 0.0025 0.8813
vn 0.9128 0.4051 -0.0518
vn 0.9272 0.3590 0.1066
vn 0.9094 0.4073 -0.0848
vn -0.9559 0.2872 0.0616
vn -0.9463 0.3162 -0.0670
vn -0.8682 0.4957 0.0221
vn 0.9984 0.0279 -0.0487
vn 0.9971 0.0211 0.0725
vn 0.9982 0.0308 -0.0517
vn -0.9980 0.0115 -0.0626
vn -0.9997 -0.0150 0.0208
vn -0.9989 -0.0317 -0.0337
vt 0.152931 0.552364
vt 0.152835 0.877061
vt 0.013419 0.888645
vt 0.016539 0.550479
vt 0.724885 0.313687
vt 0.725003 0.000000
vt 0.743796 0.039167
vt 0.745075 0.314389
vt 0.824148 0.868098
vt 0.824148 0.596321
vt 0.918277 0.624416
vt 0.895382 0.867308
vt 0.826711 0.264518
vt 0.829427 0.021207
vt 0.905365 0.000000
vt 0.905365 0.266366
vt 0.832914 0.577087
vt 0.832914 0.314389
vt 0.949471 0.314955
vt 0.936777 0.571877
vt 0.750003 0.877030
vt 0.745483 0.619299
vt 0.824148 0.596321
vt 0.824148 0.872835
vt 0.493139 0.837720
vt 0.411589 0.873653
vt 0.417787 0.769745
vt 0.493139 0.766477
vt 0.330505 0.766477
vt 0.404073 0.778819
vt 0.411589 0.870521
vt 0.330505 0.884172
vt 0.572996 0.573395
vt 0.539407 0.895714
vt 0.471632 0.881767
vt 0.490920 0.571087
vt 0.682953 0.459662
vt 0.665436 0.455800
vt 0.658167 0.389193
vt 0.681786 0.380302
vt 0.421945 0.949710
vt 0.366066 0.913389
vt 0.487552 0.878802
vt 0.524281 0.950953
vt 0.558167 0.957437
vt 0.458317 0.952997
vt 0.705693 0.459756
vt 0.699706 0.401037
vt 0.705693 0.313014
vt 0.705693 0.041769
vt 0.698233 0.774147
vt 0.678824 0.777152
vt 0.682660 0.670043
vt 0.703168 0.666049
vt 0.681782 0.562727
vt 0.698026 0.577139
vt 0.933776 0.910256
vt 0.934436 0.961423
vt 0.818745 0.981369
vt 0.816057 0.896086
vt 0.724230 0.967474
vt 0.681234 0.870229
vt 0.036608 0.944131
vt 0.154460 0.965331
vt 0.294033 0.881491
vt 0.251614 0.957699
vt 0.658418 0.780106
vt 0.664316 0.666586
vt 0.662616 0.574777
vt 0.972639 0.575477
vt 0.832747 0.575491
vt 0.719612 0.574106
vt 0.487360 0.559498
vt 0.413243 0.557074
vt 0.265143 0.555401
vt 0.878848 0.566836
vt 0.981504 0.569505
vt 0.969051 0.903157
vt 0.889833 0.868551
vt 0.724650 0.623884
vt 0.705693 0.624124
vt 0.705693 0.354491
vt 0.725172 0.314389
vt 0.832914 0.596203
vt 0.745483 0.596321
vt 0.752308 0.354347
vt 0.832611 0.314389
vt 0.996671 0.847829
vt 0.918277 0.849443
vt 0.918277 0.596321
vt 0.994474 0.603552
vt 1.000000 0.260491
vt 0.905365 0.260080
vt 0.905365 -0.000000
vt 0.965245 0.011227
vt 0.824109 0.291967
vt 0.745075 0.286995
vt 0.745075 -0.000000
vt 0.826711 0.030097
vt 0.570763 0.778511
vt 0.572208 0.865935
vt 0.493139 0.861137
vt 0.493139 0.766477
vt 0.573784 0.851986
vt 0.572208 0.790411
vt 0.653567 0.766477
vt 0.653567 0.852629
vt 0.390766 0.570409
vt 0.368024 0.899171
vt 0.680449 0.312799
vt 0.659205 0.307918
vt 0.617383 0.943806
vt 0.659681 0.901406
vt 0.367610 0.945586
vt 0.704539 0.285773
vt 0.742939 0.623464
vt 0.745483 0.355731
vt 0.697905 0.009454
vt 0.701934 0.090793
vt 0.679567 0.114170
vt 0.680587 0.000000
vt 0.700016 0.190759
vt 0.679425 0.209403
vt 0.007626 0.895836
vt 0.147807 0.891663
vt 0.157310 0.965033
vt 0.013090 0.948334
vt 0.262501 0.881609
vt 0.227472 0.947902
vt 0.980228 0.958698
vt 0.832102 0.967990
vt 0.760755 0.953606
vt 0.733062 0.903285
vt 0.664119 0.100192
vt 0.660274 0.010558
vt 0.661451 0.190498
vt 0.024331 0.567342
vt 0.134785 0.569166
vt 0.246069 0.569592
vt 0.632795 0.561577
vt 0.752708 0.564665
s 0
f 27/1/1 23/2/1 3/3/1 4/4/1
f 17/5/2 18/6/2 1/7/2 2/8/2
f 5/9/3 6/10/3 8/11/3 7/12/3
f 7/13/4 8/14/4 12/15/4 11/16/4
f 11/17/5 12/18/5 10/19/5 9/20/5
f 9/21/6 10/22/6 6/23/6 5/24/6
f 7/25/7 11/26/7 9/27/7 5/28/7
f 12/29/8 8/30/8 6/31/8 10/32/8
f 24/33/9 32/34/9 14/35/9 16/36/9
f 38/37/7 24/38/7 16/39/7 19/40/7
f 35/41/10 21/42/10 15/43/10 20/44/10
f 32/34/11 35/45/11 20/46/11 14/35/11
f 29/47/7 38/37/7 19/40/7 13/48/7
f 4/49/12 3/50/12 18/6/12 17/5/12
f 4/51/7 17/52/7 36/53/7 27/54/7
f 27/54/7 36/53/7 37/55/7 28/56/7
f 28/56/7 37/55/7 38/37/7 29/47/7
f 1/57/13 18/58/13 33/59/13 30/60/13
f 30/60/14 33/59/14 34/61/14 31/62/14
f 31/62/15 34/61/15 35/45/15 32/34/15
f 18/63/16 3/3/16 23/2/16 33/64/16
f 33/64/17 23/2/17 22/65/17 34/66/17
f 34/66/18 22/65/18 21/42/18 35/41/18
f 17/52/7 2/67/7 26/68/7 36/53/7
f 36/53/7 26/68/7 25/69/7 37/55/7
f 37/55/7 25/69/7 24/38/7 38/37/7
f 2/70/19 1/57/19 30/60/19 26/71/19
f 26/71/20 30/60/20 31/62/20 25/72/20
f 25/72/21 31/62/21 32/34/21 24/33/21
f 13/73/22 15/43/22 21/42/22 29/74/22
f 29/74/23 21/42/23 22/65/23 28/75/23
f 28/75/24 22/65/24 23/2/24 27/1/24
f 59/76/25 42/77/25 41/78/25 55/79/25
f 51/80/26 40/81/26 39/82/26 52/83/26
f 43/84/27 45/85/27 46/86/27 44/87/27
f 45/88/28 49/89/28 50/90/28 46/91/28
f 49/92/29 47/93/29 48/94/29 50/95/29
f 47/96/30 43/97/30 44/98/30 48/99/30
f 45/100/7 43/101/7 47/102/7 49/103/7
f 50/104/31 48/105/31 44/106/31 46/107/31
f 56/108/32 16/36/32 14/35/32 64/109/32
f 70/110/7 19/40/7 16/39/7 56/111/7
f 67/112/33 20/44/33 15/43/33 53/113/33
f 64/109/34 14/35/34 20/46/34 67/114/34
f 61/115/7 13/48/7 19/40/7 70/110/7
f 42/116/35 51/80/35 52/83/35 41/117/35
f 42/118/7 59/119/7 68/120/7 51/121/7
f 59/119/7 60/122/7 69/123/7 68/120/7
f 60/122/7 61/115/7 70/110/7 69/123/7
f 39/124/36 62/125/36 65/126/36 52/127/36
f 62/125/37 63/128/37 66/129/37 65/126/37
f 63/128/38 64/109/38 67/114/38 66/129/38
f 52/130/39 65/131/39 55/79/39 41/78/39
f 65/131/40 66/132/40 54/133/40 55/79/40
f 66/132/41 67/112/41 53/113/41 54/133/41
f 51/121/7 68/120/7 58/134/7 40/135/7
f 68/120/7 69/123/7 57/136/7 58/134/7
f 69/123/7 70/110/7 56/111/7 57/136/7
f 40/137/42 58/138/42 62/125/42 39/124/42
f 58/138/43 57/139/43 63/128/43 62/125/43
f 57/139/44 56/108/44 64/109/44 63/128/44
f 13/73/45 61/140/45 53/113/45 15/43/45
f 61/140/46 60/141/46 54/133/46 53/113/46
f 60/141/47 59/76/47 55/79/47 54/133/47
